# xmcd
#
# Track frame offsets: 
#        150
#        17220
#        47930
#        67960
#        85516
#        114476
#        141703
#        163634
#        175403
#        204327
#        232808
#        255593
#        272710
#
# Disc length: 4019 seconds
#
# Revision: 1
# Processed by: cddbd v1.5.2PL0 Copyright (c) Steve Scherf et al.
# Submitted via: ExactAudioCopy v0.99pb4
#
DISCID=b10fb10d
DTITLE=Flat Earth Society - PsychoScout
DYEAR=2006
DGENRE=Jazz
TTITLE0=Anthem 2004
TTITLE1=Clusterthing
TTITLE2=Gulls and Buoys
TTITLE3=Edward, Why Don't You Play Some Blues
TTITLE4=Hilton's Heaven (dedicated to Herman Brood)
TTITLE5=In Between Rivers
TTITLE6=PsychoScout
TTITLE7=Lie to Me
TTITLE8=Without
TTITLE9=Snaggletooth
TTITLE10=Lax
TTITLE11=Waterman (dedicated to Maarten van Severen)
TTITLE12=Ich, Bin, George,
EXTD=YEAR: 2006
EXTT0=
EXTT1=
EXTT2=
EXTT3=
EXTT4=
EXTT5=
EXTT6=
EXTT7=
EXTT8=
EXTT9=
EXTT10=
EXTT11=
EXTT12=
PLAYORDER=
